<svg width="100" height="100" viewBox="0 0 100 100" fill="none" xmlns="http://www.w3.org/2000/svg">
<rect width="100" height="100" rx="25" fill="black"/>
<path d="M26.625 36.5C23.8292 36.5 21.5417 34.2125 21.5417 31.4167V18.7083C21.5417 15.9125 23.8292 13.625 26.625 13.625H46.9584C49.7542 13.625 52.0417 15.9125 52.0417 18.7083V31.4167C52.0417 34.2125 49.7542 36.5 46.9584 36.5H41.875V44.125L34.25 36.5H26.625ZM72.375 51.75C75.1709 51.75 77.4584 49.4625 77.4584 46.6667V33.9583C77.4584 31.1625 75.1709 28.875 72.375 28.875H57.125V31.4167C57.125 37.0083 52.55 41.5833 46.9584 41.5833V46.6667C46.9584 49.4625 49.2459 51.75 52.0417 51.75H57.125V59.375L64.75 51.75H72.375Z" fill="white"/>
<path d="M17.896 91.672C17.6293 91.672 17.496 91.5387 17.496 91.272V88.232C17.496 88.0293 17.5493 87.8693 17.656 87.752L20.024 85.384C20.152 85.2667 20.216 85.096 20.216 84.872V68.072C20.216 67.8053 20.3493 67.672 20.616 67.672H25.56C25.8267 67.672 25.96 67.8053 25.96 68.072V87.608C25.96 87.704 25.9493 87.7947 25.928 87.88C25.9067 87.9547 25.8533 88.0347 25.768 88.12L22.456 91.432C22.296 91.592 22.136 91.672 21.976 91.672H17.896ZM34.972 89C34.716 89 34.5027 88.9307 34.332 88.792L31.98 86.584L29.228 83.288C29.1107 83.1493 29.036 83.0587 29.004 83.016C28.972 82.9627 28.956 82.856 28.956 82.696V73.96C28.956 73.8 28.972 73.6987 29.004 73.656C29.036 73.6027 29.1107 73.5067 29.228 73.368L31.66 70.44L34.332 67.88C34.4387 67.784 34.5293 67.7253 34.604 67.704C34.6893 67.6827 34.812 67.672 34.972 67.672H39.084C39.3507 67.672 39.484 67.8053 39.484 68.072V71.208C39.484 71.2933 39.4733 71.384 39.452 71.48C39.4413 71.5653 39.3933 71.64 39.308 71.704L36.572 73.784L34.684 76.056V80.696L36.652 83.048L39.308 85.032C39.3933 85.096 39.4413 85.1653 39.452 85.24C39.4733 85.3147 39.484 85.4 39.484 85.496V88.6C39.484 88.8667 39.3507 89 39.084 89H34.972ZM42.436 89C42.1693 89 42.036 88.8667 42.036 88.6V68.072C42.036 67.8053 42.1693 67.672 42.436 67.672H46.948C47.2147 67.672 47.348 67.8053 47.348 68.072V71.4H50.996C51.2413 71.4 51.4547 71.4907 51.636 71.672L54.836 74.872C55.0067 75.0427 55.092 75.256 55.092 75.512V88.6C55.092 88.8667 54.9587 89 54.692 89H50.18C49.9133 89 49.78 88.8667 49.78 88.6V76.648C49.78 76.2 49.556 75.976 49.108 75.976H47.348V88.6C47.348 88.8667 47.2147 89 46.948 89H42.436ZM62.1305 89C61.8852 89 61.6718 88.9093 61.4905 88.728L58.2905 85.528C58.1092 85.3573 58.0185 85.144 58.0185 84.888V75.512C58.0185 75.256 58.1092 75.0427 58.2905 74.872L61.4905 71.672C61.6718 71.4907 61.8852 71.4 62.1305 71.4H70.6905C70.9572 71.4 71.0905 71.5333 71.0905 71.8V88.6C71.0905 88.8667 70.9572 89 70.6905 89H67.1385C66.9998 89 66.8878 88.9787 66.8025 88.936C66.7278 88.8827 66.6478 88.8133 66.5625 88.728L65.7625 87.928L64.9625 88.728C64.7918 88.9093 64.5785 89 64.3225 89H62.1305ZM64.1625 84.776H64.9465C65.2558 84.776 65.4692 84.712 65.5865 84.584C65.7038 84.4453 65.7625 84.2213 65.7625 83.912V75.624H64.1785C63.8692 75.624 63.6505 75.6933 63.5225 75.832C63.3945 75.96 63.3305 76.1787 63.3305 76.488V83.912C63.3305 84.2213 63.3892 84.4453 63.5065 84.584C63.6345 84.712 63.8532 84.776 64.1625 84.776ZM77.9393 89C77.6939 89 77.4806 88.9093 77.2993 88.728L74.6273 86.072C74.4566 85.8907 74.3713 85.6773 74.3713 85.432V75.624H73.6993C73.4326 75.624 73.2993 75.4907 73.2993 75.224V71.8C73.2993 71.5333 73.4326 71.4 73.6993 71.4H74.3713V69.4C74.3713 69.1333 74.5046 69 74.7713 69H79.2673C79.5339 69 79.6673 69.1333 79.6673 69.4V71.4H81.2193C81.4859 71.4 81.6193 71.5333 81.6193 71.8V75.224C81.6193 75.4907 81.4859 75.624 81.2193 75.624H79.6673V83.496C79.6673 83.7093 79.7313 83.88 79.8593 84.008L81.4273 85.576C81.5339 85.6827 81.5873 85.8427 81.5873 86.056V88.6C81.5873 88.8667 81.4539 89 81.1873 89H77.9393Z" fill="white"/>
</svg>
